<svg xmlns="http://www.w3.org/2000/svg" xmlns:xlink="http://www.w3.org/1999/xlink" contentStyleType="text/css" data-diagram-type="DESCRIPTION" height="501px" preserveAspectRatio="none" style="width:691px;height:501px;background:#FFFFFF;" version="1.1" viewBox="0 0 691 501" width="691px" zoomAndPan="magnify"><defs/><g><!--cluster VC Profile Validator--><g class="cluster" data-entity="VC Profile Validator" data-source-line="6" data-uid="ent0002" id="cluster_VC Profile Validator"><path d="M12.06,93.49 L154.6528,93.49 A3.75,3.75 0 0 1 157.1528,95.99 L164.1528,115.9783 L327.06,115.9783 A2.5,2.5 0 0 1 329.56,118.4783 L329.56,406.95 A2.5,2.5 0 0 1 327.06,409.45 L12.06,409.45 A2.5,2.5 0 0 1 9.56,406.95 L9.56,95.99 A2.5,2.5 0 0 1 12.06,93.49" fill="none" style="stroke:#000000;stroke-width:1.5;"/><line style="stroke:#000000;stroke-width:1.5;" x1="9.56" x2="164.1528" y1="115.9783" y2="115.9783"/><text fill="#000000" font-family="sans-serif" font-size="14" font-weight="bold" lengthAdjust="spacing" textLength="141.5928" x="13.56" y="109.0252">VC Profile Validator</text></g><!--entity cli--><g class="entity" data-entity="cli" data-source-line="7" data-uid="ent0003" id="entity_cli"><rect fill="#F1F1F1" height="36.4883" rx="2.5" ry="2.5" style="stroke:#181818;stroke-width:0.5;" width="41.1846" x="93.97" y="128.49"/><text fill="#000000" font-family="sans-serif" font-size="14" lengthAdjust="spacing" textLength="21.1846" x="103.97" y="152.0252">CLI</text></g><!--entity engine--><g class="entity" data-entity="engine" data-source-line="8" data-uid="ent0004" id="entity_engine"><rect fill="#F1F1F1" height="36.4883" rx="2.5" ry="2.5" style="stroke:#181818;stroke-width:0.5;" width="138.0635" x="26.53" y="241.98"/><text fill="#000000" font-family="sans-serif" font-size="14" lengthAdjust="spacing" textLength="68.0928" x="36.53" y="265.5152">Validation</text><text fill="#000000" font-family="sans-serif" font-size="14" lengthAdjust="spacing" textLength="4.4297" x="104.6228" y="265.5152">&#160;</text><text fill="#000000" font-family="sans-serif" font-size="14" lengthAdjust="spacing" textLength="45.541" x="109.0525" y="265.5152">Engine</text></g><!--entity loader--><g class="entity" data-entity="loader" data-source-line="9" data-uid="ent0005" id="entity_loader"><rect fill="#F1F1F1" height="36.4883" rx="2.5" ry="2.5" style="stroke:#181818;stroke-width:0.5;" width="113.6729" x="199.72" y="241.98"/><text fill="#000000" font-family="sans-serif" font-size="14" lengthAdjust="spacing" textLength="43.1074" x="209.72" y="265.5152">Profile</text><text fill="#000000" font-family="sans-serif" font-size="14" lengthAdjust="spacing" textLength="4.4297" x="252.8274" y="265.5152">&#160;</text><text fill="#000000" font-family="sans-serif" font-size="14" lengthAdjust="spacing" textLength="46.1357" x="257.2571" y="265.5152">Loader</text></g><!--entity rules--><g class="entity" data-entity="rules" data-source-line="10" data-uid="ent0006" id="entity_rules"><rect fill="#F1F1F1" height="36.4883" rx="2.5" ry="2.5" style="stroke:#181818;stroke-width:0.5;" width="116.4141" x="25.35" y="356.96"/><text fill="#000000" font-family="sans-serif" font-size="14" lengthAdjust="spacing" textLength="29.3877" x="35.35" y="380.4952">Rule</text><text fill="#000000" font-family="sans-serif" font-size="14" lengthAdjust="spacing" textLength="4.4297" x="64.7377" y="380.4952">&#160;</text><text fill="#000000" font-family="sans-serif" font-size="14" lengthAdjust="spacing" textLength="62.5967" x="69.1674" y="380.4952">Evaluator</text></g><!--entity report--><g class="entity" data-entity="report" data-source-line="11" data-uid="ent0007" id="entity_report"><rect fill="#F1F1F1" height="36.4883" rx="2.5" ry="2.5" style="stroke:#181818;stroke-width:0.5;" width="136.8877" x="177.12" y="356.96"/><text fill="#000000" font-family="sans-serif" font-size="14" lengthAdjust="spacing" textLength="45.0283" x="187.12" y="380.4952">Report</text><text fill="#000000" font-family="sans-serif" font-size="14" lengthAdjust="spacing" textLength="4.4297" x="232.1483" y="380.4952">&#160;</text><text fill="#000000" font-family="sans-serif" font-size="14" lengthAdjust="spacing" textLength="67.4297" x="236.578" y="380.4952">Generator</text></g><!--entity batch--><g class="entity" data-entity="batch" data-source-line="12" data-uid="ent0008" id="entity_batch"><rect fill="#F1F1F1" height="36.4883" rx="2.5" ry="2.5" style="stroke:#181818;stroke-width:0.5;" width="109.7559" x="192.68" y="128.49"/><text fill="#000000" font-family="sans-serif" font-size="14" lengthAdjust="spacing" textLength="36.8799" x="202.68" y="152.0252">Batch</text><text fill="#000000" font-family="sans-serif" font-size="14" lengthAdjust="spacing" textLength="4.4297" x="239.5599" y="152.0252">&#160;</text><text fill="#000000" font-family="sans-serif" font-size="14" lengthAdjust="spacing" textLength="48.4463" x="243.9896" y="152.0252">Runner</text></g><!--entity profiles--><g class="entity" data-entity="profiles" data-source-line="15" data-uid="ent0009" id="entity_profiles"><rect fill="#F1F1F1" height="39.4883" rx="2.5" ry="2.5" style="stroke:#181818;stroke-width:0.5;" width="131.6846" x="348.72" y="355.46"/><polygon fill="#F1F1F1" points="463.4046,360.46,463.4046,374.46,475.4046,374.46,475.4046,366.46,469.4046,360.46,463.4046,360.46" style="stroke:#181818;stroke-width:0.5;"/><line style="stroke:#181818;stroke-width:0.5;" x1="469.4046" x2="469.4046" y1="360.46" y2="366.46"/><line style="stroke:#181818;stroke-width:0.5;" x1="475.4046" x2="469.4046" y1="366.46" y2="366.46"/><text fill="#000000" font-family="sans-serif" font-size="14" lengthAdjust="spacing" textLength="50.2441" x="358.72" y="381.9952">Profiles</text><text fill="#000000" font-family="sans-serif" font-size="14" lengthAdjust="spacing" textLength="4.4297" x="408.9641" y="381.9952">&#160;</text><text fill="#000000" font-family="sans-serif" font-size="14" lengthAdjust="spacing" textLength="47.0107" x="413.3938" y="381.9952">(YAML)</text></g><!--entity inputs--><g class="entity" data-entity="inputs" data-source-line="16" data-uid="ent0010" id="entity_inputs"><rect fill="#F1F1F1" height="39.4883" rx="2.5" ry="2.5" style="stroke:#181818;stroke-width:0.5;" width="215.1172" x="7" y="7"/><polygon fill="#F1F1F1" points="205.1172,12,205.1172,26,217.1172,26,217.1172,18,211.1172,12,205.1172,12" style="stroke:#181818;stroke-width:0.5;"/><line style="stroke:#181818;stroke-width:0.5;" x1="211.1172" x2="211.1172" y1="12" y2="18"/><line style="stroke:#181818;stroke-width:0.5;" x1="217.1172" x2="211.1172" y1="18" y2="18"/><text fill="#000000" font-family="sans-serif" font-size="14" lengthAdjust="spacing" textLength="43.0732" x="17" y="33.5352">VC/VP</text><text fill="#000000" font-family="sans-serif" font-size="14" lengthAdjust="spacing" textLength="4.4297" x="60.0732" y="33.5352">&#160;</text><text fill="#000000" font-family="sans-serif" font-size="14" lengthAdjust="spacing" textLength="42.5947" x="64.5029" y="33.5352">Inputs</text><text fill="#000000" font-family="sans-serif" font-size="14" lengthAdjust="spacing" textLength="4.4297" x="107.0977" y="33.5352">&#160;</text><text fill="#000000" font-family="sans-serif" font-size="14" lengthAdjust="spacing" textLength="29.7363" x="111.5273" y="33.5352">(JWT</text><text fill="#000000" font-family="sans-serif" font-size="14" lengthAdjust="spacing" textLength="4.4297" x="141.2637" y="33.5352">&#160;</text><text fill="#000000" font-family="sans-serif" font-size="14" lengthAdjust="spacing" textLength="14.3281" x="145.6934" y="33.5352">or</text><text fill="#000000" font-family="sans-serif" font-size="14" lengthAdjust="spacing" textLength="4.4297" x="160.0215" y="33.5352">&#160;</text><text fill="#000000" font-family="sans-serif" font-size="14" lengthAdjust="spacing" textLength="37.666" x="164.4512" y="33.5352">JSON)</text></g><!--entity outputs--><g class="entity" data-entity="outputs" data-source-line="17" data-uid="ent0011" id="entity_outputs"><rect fill="#F1F1F1" height="39.4883" rx="2.5" ry="2.5" style="stroke:#181818;stroke-width:0.5;" width="192.4629" x="293.33" y="456.45"/><polygon fill="#F1F1F1" points="468.7929,461.45,468.7929,475.45,480.7929,475.45,480.7929,467.45,474.7929,461.45,468.7929,461.45" style="stroke:#181818;stroke-width:0.5;"/><line style="stroke:#181818;stroke-width:0.5;" x1="474.7929" x2="474.7929" y1="461.45" y2="467.45"/><line style="stroke:#181818;stroke-width:0.5;" x1="480.7929" x2="474.7929" y1="467.45" y2="467.45"/><text fill="#000000" font-family="sans-serif" font-size="14" lengthAdjust="spacing" textLength="33.1133" x="303.33" y="482.9852">JSON</text><text fill="#000000" font-family="sans-serif" font-size="14" lengthAdjust="spacing" textLength="4.4297" x="336.4433" y="482.9852">&#160;</text><text fill="#000000" font-family="sans-serif" font-size="14" lengthAdjust="spacing" textLength="25.2314" x="340.873" y="482.9852">and</text><text fill="#000000" font-family="sans-serif" font-size="14" lengthAdjust="spacing" textLength="4.4297" x="366.1044" y="482.9852">&#160;</text><text fill="#000000" font-family="sans-serif" font-size="14" lengthAdjust="spacing" textLength="38.6641" x="370.5341" y="482.9852">HTML</text><text fill="#000000" font-family="sans-serif" font-size="14" lengthAdjust="spacing" textLength="4.4297" x="409.1982" y="482.9852">&#160;</text><text fill="#000000" font-family="sans-serif" font-size="14" lengthAdjust="spacing" textLength="52.165" x="413.6279" y="482.9852">Reports</text></g><!--link cli to loader--><g class="link" data-entity-1="cli" data-entity-2="loader" data-source-line="19" data-uid="lnk12" id="link_cli_loader"><path d="M118.67,165.36 C122.81,179.59 130.49,199.26 143.56,211.98 C158.96,226.95 174.1621,235.38 193.7521,242.62" fill="none" id="cli-to-loader" style="stroke:#181818;stroke-width:1;"/><polygon fill="#181818" points="199.38,244.7,192.3247,237.8281,194.69,242.9667,189.5514,245.332,199.38,244.7" style="stroke:#181818;stroke-width:1;"/></g><!--link cli to engine--><g class="link" data-entity-1="cli" data-entity-2="engine" data-source-line="20" data-uid="lnk13" id="link_cli_engine"><path d="M111.59,165.15 C108.04,185.97 103.1488,214.7054 99.5788,235.6354" fill="none" id="cli-to-engine" style="stroke:#181818;stroke-width:1;"/><polygon fill="#181818" points="98.57,241.55,104.0263,233.3507,99.4107,236.6212,96.1402,232.0056,98.57,241.55" style="stroke:#181818;stroke-width:1;"/></g><!--link engine to rules--><g class="link" data-entity-1="engine" data-entity-2="rules" data-source-line="21" data-uid="lnk14" id="link_engine_rules"><path d="M93.68,278.87 C91.43,300.1 88.3041,329.5436 86.0541,350.7136" fill="none" id="engine-to-rules" style="stroke:#181818;stroke-width:1;"/><polygon fill="#181818" points="85.42,356.68,90.3488,348.1532,85.9484,351.708,82.3936,347.3077,85.42,356.68" style="stroke:#181818;stroke-width:1;"/></g><!--link engine to report--><g class="link" data-entity-1="engine" data-entity-2="report" data-source-line="22" data-uid="lnk15" id="link_engine_report"><path d="M119,278.87 C147.18,300.1 189.3872,331.9005 217.4972,353.0705" fill="none" id="engine-to-report" style="stroke:#181818;stroke-width:1;"/><polygon fill="#181818" points="222.29,356.68,217.5071,348.0705,218.296,353.672,212.6944,354.4609,222.29,356.68" style="stroke:#181818;stroke-width:1;"/></g><!--link loader to profiles--><g class="link" data-entity-1="loader" data-entity-2="profiles" data-source-line="23" data-uid="lnk16" id="link_loader_profiles"><path d="M281.25,278.87 C310.15,299.54 352.9699,330.1593 382.7899,351.4893" fill="none" id="loader-to-profiles" style="stroke:#181818;stroke-width:1;"/><polygon fill="#181818" points="387.67,354.98,382.677,346.4906,383.6033,352.0711,378.0228,352.9974,387.67,354.98" style="stroke:#181818;stroke-width:1;"/></g><!--link inputs to cli--><g class="link" data-entity-1="inputs" data-entity-2="cli" data-source-line="24" data-uid="lnk17" id="link_inputs_cli"><path d="M114.56,46.96 C114.56,69.43 114.56,100.29 114.56,122.06" fill="none" id="inputs-to-cli" style="stroke:#181818;stroke-width:1;"/><polygon fill="#181818" points="114.56,128.06,118.56,119.06,114.56,123.06,110.56,119.06,114.56,128.06" style="stroke:#181818;stroke-width:1;"/></g><!--link report to outputs--><g class="link" data-entity-1="report" data-entity-2="outputs" data-source-line="25" data-uid="lnk18" id="link_report_outputs"><path d="M271.3,393.9 C296.71,411.37 330.4859,434.5806 356.6359,452.5606" fill="none" id="report-to-outputs" style="stroke:#181818;stroke-width:1;"/><polygon fill="#181818" points="361.58,455.96,356.4301,447.5648,357.4599,453.1272,351.8976,454.1569,361.58,455.96" style="stroke:#181818;stroke-width:1;"/></g><!--link batch to engine--><g class="link" data-entity-1="batch" data-entity-2="engine" data-source-line="27" data-uid="lnk19" id="link_batch_engine"><path d="M223.48,165.4 C195.01,186.27 152.7779,217.2512 124.3679,238.0912" fill="none" id="batch-to-engine" style="stroke:#181818;stroke-width:1;"/><polygon fill="#181818" points="119.53,241.64,129.1528,239.542,123.5616,238.6826,124.421,233.0914,119.53,241.64" style="stroke:#181818;stroke-width:1;"/><text fill="#000000" font-family="sans-serif" font-size="13" lengthAdjust="spacing" textLength="94.5737" x="181.66" y="208.5484">run suite cases</text></g><!--link batch to outputs--><g class="link" data-entity-1="batch" data-entity-2="outputs" data-source-line="28" data-uid="lnk20" id="link_batch_outputs"><path d="M284.82,165.24 C343,194.91 453.33,261.21 497.56,355.46 C509.26,380.4 511.72,393.82 497.56,417.45 C487.18,434.78 475.0233,444.5709 457.0533,453.3309" fill="none" id="batch-to-outputs" style="stroke:#181818;stroke-width:1;"/><polygon fill="#181818" points="451.66,455.96,461.5027,455.6119,456.1544,453.7691,457.9972,448.4208,451.66,455.96" style="stroke:#181818;stroke-width:1;"/><text fill="#000000" font-family="sans-serif" font-size="13" lengthAdjust="spacing" textLength="202.5854" x="480.44" y="322.0284">write case and summary reports</text></g><!--SRC=[JP1DJy9048Rl_HKJJdeW4eyUJ90GXHGbG4gCyJ1kjsN3ThVP3v4O_xkxiotqqkwyppkVzYXKYmORi0SizKce6YgKbcVsGfXkMgsuSbjtbXmCPmvLBOUMay5sBqftWFl9PA2Nl48ltOx_kAaKjMf25M3XmqsMjSYEM7CO5JDO6rs9KBn0AKfqsepWDmFucEMBJq0BJ8eOTbXe1NDL2yK9Sdf6tfV9DPRS49JqZ73Z0vb_e_In0K4J94kCjzeuUEQAcoibCU8dTEm06wzKL_Kh2jbVbg5neaBcODJrjd3pFbtbjwDeQpjjO2jcTyKQ5ghrBbYN-nre0yljsslA40G6_eW0LGalkrKEQKvBLkqTURDm71YF7_jL-x0xI_gHajOT2cd3b4ZAPU8q26dn-Cb9uQKl7M7G2Xv21mNM2yU1eGrLhfOkAtXEfkUqb_LDW-RSpMB_0G00]--></g></svg>